<?xml version="1.0" encoding="utf-8"?>
<!-- Generator: Adobe Illustrator 23.0.1, SVG Export Plug-In . SVG Version: 6.00 Build 0)  -->
<svg version="1.1" id="Calque_1" xmlns="http://www.w3.org/2000/svg" xmlns:xlink="http://www.w3.org/1999/xlink" x="0px" y="0px"
	 viewBox="0 0 21 21" style="enable-background:new 0 0 21 21;" xml:space="preserve">
<style type="text/css">
	.st0{fill:none;}
</style>
<g id="Group_1" transform="translate(235 259) rotate(180)">
	<rect id="Rectangle_1" x="214" y="238" class="st0" width="21" height="21"/>
	<g id="back" transform="translate(214.494 165.504)">
		<path id="Path_1" d="M19,81.9H3.3l4.3-4.3c0.3-0.4,0.3-1-0.1-1.4c-0.4-0.3-0.9-0.3-1.2,0l-5.9,5.9c-0.4,0.4-0.4,1,0,1.4l5.9,5.9
			c0.4,0.3,1,0.3,1.4-0.1c0.3-0.4,0.3-0.9,0-1.2l-4.3-4.3H19c0.5,0,1-0.4,1-0.9c0-0.5-0.4-1-0.9-1C19.1,81.9,19,81.9,19,81.9z"/>
	</g>
</g>
</svg>
