<?xml version="1.0" encoding="UTF-8" standalone="no"?>
<svg
   version="1.1"
   id="Calque_2"
   x="0px"
   y="0px"
   viewBox="0 0 21 21"
   style="enable-background:new 0 0 21 21;"
   xml:space="preserve"
   sodipodi:docname="rewind.svg"
   inkscape:version="1.1.2 (b8e25be8, 2022-02-05)"
   xmlns:inkscape="http://www.inkscape.org/namespaces/inkscape"
   xmlns:sodipodi="http://sodipodi.sourceforge.net/DTD/sodipodi-0.dtd"
   xmlns="http://www.w3.org/2000/svg"
   xmlns:svg="http://www.w3.org/2000/svg"><defs
   id="defs903">
	
</defs><sodipodi:namedview
   id="namedview901"
   pagecolor="#ffffff"
   bordercolor="#666666"
   borderopacity="1.0"
   inkscape:pageshadow="2"
   inkscape:pageopacity="0.0"
   inkscape:pagecheckerboard="0"
   showgrid="false"
   inkscape:zoom="17.939084"
   inkscape:cx="12.84904"
   inkscape:cy="6.2154791"
   inkscape:window-width="1312"
   inkscape:window-height="969"
   inkscape:window-x="68"
   inkscape:window-y="23"
   inkscape:window-maximized="0"
   inkscape:current-layer="Calque_2" />
<style
   type="text/css"
   id="style894">
	.st0{fill:none;stroke:#000000;stroke-width:2;stroke-linecap:round;stroke-linejoin:round;stroke-miterlimit:10;}
</style>
<path
   style="color:#000000;fill:#000000;stroke-linecap:round;stroke-linejoin:round;stroke-miterlimit:10;-inkscape-stroke:none"
   d="M 14.806641,1.1992187 A 1,1 0 0 0 14.097656,1.4882812 L 5.4960937,9.9882813 a 1.0001,1.0001 0 0 0 -0.00391,1.4179687 l 8.4003905,8.400391 a 1,1 0 0 0 1.414063,0 1,1 0 0 0 0,-1.414063 l -7.6875004,-7.6875 7.8847654,-7.7929686 a 1,1 0 0 0 0.0078,-1.4160157 1,1 0 0 0 -0.705078,-0.296875 z"
   id="polyline896"
   transform="translate(1.8817204)" />
<path
   style="color:#000000;fill:#000000;stroke-linecap:round;-inkscape-stroke:none"
   d="m 5.0625,1.1972656 a 1,1 0 0 0 -1,1 V 19.070312 a 1,1 0 0 0 1,1 1,1 0 0 0 1,-1 V 2.1972656 a 1,1 0 0 0 -1,-1 z"
   id="path1238" /></svg>
